<svg width="640" height="800" viewBox="0 0 640 800" fill="none" xmlns="http://www.w3.org/2000/svg" role="img" aria-label="Profile photo placeholder">
  <defs>
    <linearGradient id="bg" x1="0" y1="0" x2="1" y2="1">
      <stop offset="0" stop-color="#11161f"/>
      <stop offset="1" stop-color="#070a0f"/>
    </linearGradient>
    <radialGradient id="glow" cx="0.5" cy="0.32" r="0.55">
      <stop offset="0" stop-color="#26c281" stop-opacity="0.28"/>
      <stop offset="1" stop-color="#26c281" stop-opacity="0"/>
    </radialGradient>
    <pattern id="grid" width="40" height="40" patternUnits="userSpaceOnUse">
      <path d="M40 0H0V40" fill="none" stroke="#ffffff" stroke-opacity="0.04" stroke-width="1"/>
    </pattern>
  </defs>
  <rect width="640" height="800" fill="url(#bg)"/>
  <rect width="640" height="800" fill="url(#grid)"/>
  <rect width="640" height="800" fill="url(#glow)"/>
  <text x="320" y="360" font-family="ui-monospace, monospace" font-size="190" font-weight="700" fill="#26c281" text-anchor="middle" letter-spacing="6">NH</text>
  <text x="320" y="440" font-family="ui-monospace, monospace" font-size="22" fill="#8a97a6" text-anchor="middle" letter-spacing="10">NAYEEM HOSSEN</text>
  <text x="320" y="600" font-family="ui-monospace, monospace" font-size="16" fill="#4ade9b" text-anchor="middle" letter-spacing="2">$ whoami</text>
  <text x="320" y="630" font-family="ui-monospace, monospace" font-size="16" fill="#8a97a6" text-anchor="middle" letter-spacing="2">support-engineer</text>
  <rect x="60" y="60" width="28" height="2" fill="#26c281" opacity="0.6"/>
  <rect x="60" y="60" width="2" height="28" fill="#26c281" opacity="0.6"/>
  <rect x="552" y="60" width="28" height="2" fill="#26c281" opacity="0.6"/>
  <rect x="578" y="60" width="2" height="28" fill="#26c281" opacity="0.6"/>
  <rect x="60" y="738" width="28" height="2" fill="#26c281" opacity="0.6"/>
  <rect x="60" y="712" width="2" height="28" fill="#26c281" opacity="0.6"/>
  <rect x="552" y="738" width="28" height="2" fill="#26c281" opacity="0.6"/>
  <rect x="578" y="712" width="2" height="28" fill="#26c281" opacity="0.6"/>
</svg>
